<?xml version="1.0" standalone="no"?>
<!DOCTYPE svg PUBLIC "-//W3C//DTD SVG 20010904//EN"
 "http://www.w3.org/TR/2001/REC-SVG-20010904/DTD/svg10.dtd">
<svg version="1.0" xmlns="http://www.w3.org/2000/svg"
 width="400.000000pt" height="400.000000pt" viewBox="0 0 400.000000 400.000000"
 preserveAspectRatio="xMidYMid meet">
<metadata>
Created by potrace 1.14, written by Peter Selinger 2001-2017
</metadata>
<g transform="translate(0.000000,400.000000) scale(0.100000,-0.100000)"
fill="#000000" stroke="none">
<path d="M375 3980 c-86 -22 -149 -57 -206 -113 -87 -83 -121 -139 -149 -240
-20 -70 -20 -104 -17 -1652 2 -1444 4 -1584 19 -1627 40 -111 142 -232 243
-286 115 -61 -14 -56 1710 -59 1547 -3 1582 -3 1652 17 180 50 316 190 358
370 13 57 15 265 12 1640 -3 1755 3 1608 -72 1726 -75 116 -164 184 -300 225
-57 18 -136 19 -1620 18 -1487 0 -1563 -1 -1630 -19z"/>
</g>
</svg>
